Coordinates
version=1
nRows=10
nColumns=28
inDegrees=yes

Units are S.I. units (second, meters, Newtons, ...)
Angles are in degrees.

endheader
time	pelvis_tilt	pelvis_list	pelvis_rotation	pelvis_tx	pelvis_ty	pelvis_tz	hip_flexion_r	hip_adduction_r	hip_rotation_r	knee_angle_r	ankle_angle_r	subtalar_angle_r	mtp_angle_r	hip_flexion_l	hip_adduction_l	hip_rotation_l	knee_angle_l	socket_flexion	socket_adduction	socket_rotation	socket_tx	socket_ty	socket_tz	foot_flex	lumbar_extension	lumbar_bending	lumbar_rotation
      0.94166667	      7.17474029	     -2.45638519	      0.51628380	      0.39766377	      1.03991961	      0.33260155	     -2.13446547	      7.01443862	     -4.04428190	    -15.22044499	      6.00810649	     -7.99621981	      2.49781410	      8.50145326	     -5.43863036	      3.83985991	    -66.76568395	    -10.78163402	      3.80329531	     10.93120271	      0.00000000	      0.00484296	      0.00000000	     -0.83365222	    -16.41424137	      2.03231647	      3.67459266
      0.94583333	      7.13653472	     -2.33231342	      0.27259377	      0.40244810	      1.04079116	      0.33313005	     -2.58444692	      6.85728683	     -3.99432944	    -14.85128615	      5.87463319	     -7.70659960	      2.56422419	      9.10650453	     -5.25879212	      3.88582267	    -66.41152194	    -10.79037118	      3.84781593	     10.89927673	      0.00000000	      0.00495444	      0.00000000	     -0.82750299	    -16.42932680	      1.82543352	      3.85116723
      0.95000000	      7.09828742	     -2.22471663	      0.03467609	      0.40719324	      1.04161645	      0.33364653	     -3.02224918	      6.71559964	     -3.94586157	    -14.50069332	      5.78241508	     -7.42559839	      2.63714229	      9.69883111	     -5.09757002	      3.93351847	    -66.00918839	    -10.78660280	      3.88097208	     10.86283940	      0.00000000	      0.00500551	      0.00000000	     -0.82216396	    -16.45563191	      1.63024502	      4.03400668
      0.95416667	      7.16326181	     -2.05826499	     -0.29275864	      0.41194462	      1.04249099	      0.33412519	     -3.46587930	      6.43662942	     -4.13311744	    -14.35841969	      5.77867853	     -6.56175553	      3.44116985	     10.04063849	     -4.82638069	      4.00121838	    -65.36575601	    -10.74123046	      4.00803409	     10.70263879	      0.00000000	      0.00448881	      0.00000000	     -0.86797349	    -16.59270108	      1.34455991	      4.50473675
      0.95833333	      7.18047257	     -2.07148406	     -0.53412763	      0.41629964	      1.04312163	      0.33456754	     -3.78453591	      6.39945318	     -4.19775822	    -14.33688712	      5.78357053	     -6.54492015	      3.44617401	     10.61396659	     -4.81092653	      4.02865581	    -65.01733809	    -10.78032143	      3.97147223	     10.69750975	      0.00000000	      0.00447921	      0.00000000	     -0.82735608	    -16.73498312	      1.33444134	      4.51245247
      0.96250000	      7.05998197	     -1.91563143	     -0.67348725	      0.42130900	      1.04383330	      0.33507475	     -4.30782792	      6.24823541	     -4.02005391	    -13.64612677	      5.69786685	     -6.22100610	      3.49068464	     11.28840692	     -4.61939892	      4.10965245	    -64.52677064	    -10.76160241	      3.95955920	     10.72214409	      0.00000000	      0.00482889	      0.00000000	     -0.80865439	    -16.62734963	      1.06586608	      4.64858768
      0.96666667	      7.07573310	     -1.93454882	     -0.92070020	      0.42561669	      1.04439765	      0.33545980	     -4.61997723	      6.20499329	     -4.08024395	    -13.62579775	      5.68384512	     -6.19121413	      3.49541555	     11.85899785	     -4.60258440	      4.14334318	    -64.14185823	    -10.81230901	      3.91312473	     10.70823923	      0.00000000	      0.00493649	      0.00000000	     -0.77541545	    -16.77018907	      1.06436005	      4.66916699
      0.97083333	      6.91645361	     -1.80001901	     -1.10198047	      0.43079309	      1.04498078	      0.33597653	     -5.12138243	      6.06641056	     -3.87297285	    -12.89975221	      5.45144533	     -5.73728385	      3.55421041	     12.43811784	     -4.41761373	      4.25036386	    -63.41826949	    -10.76102336	      3.93112321	     10.67587292	      0.00000000	      0.00474499	      0.00000000	     -0.80794711	    -16.58042034	      0.82122343	      4.92784371
      0.97500000	      6.84738772	     -1.77211137	     -1.35599377	      0.43551091	      1.04547662	      0.33644757	     -5.50906428	      5.99171831	     -3.81018374	    -12.55894034	      5.27856112	     -5.43334197	      3.63657147	     12.93837209	     -4.34342369	      4.33726791	    -62.72952819	    -10.72989673	      3.96443210	     10.60940120	      0.00000000	      0.00438861	      0.00000000	     -0.80952962	    -16.56211173	      0.72429708	      5.18068950
      0.97916667	      6.86016089	     -1.79477069	     -1.56780685	      0.43970894	      1.04589935	      0.33680869	     -5.81377377	      5.95778357	     -3.85839252	    -12.53263277	      5.28111444	     -5.40056733	      3.64904810	     13.52733828	     -4.34384065	      4.37422634	    -62.32248738	    -10.79559643	      3.89162254	     10.58945609	      0.00000000	      0.00471252	      0.00000000	     -0.78119630	    -16.73566900	      0.71508015	      5.21043923
